<svg width="24" height="24" viewBox="0 0 24 24" fill="none" xmlns="http://www.w3.org/2000/svg">
<path fill-rule="evenodd" clip-rule="evenodd" d="M4.59202 15.304C2.34402 9.787 6.40302 3.75 12.36 3.75H12.681C13.7405 3.75 14.7897 3.95869 15.7685 4.36414C16.7474 4.7696 17.6368 5.36388 18.386 6.11306C19.1351 6.86225 19.7294 7.75166 20.1349 8.73051C20.5403 9.70936 20.749 10.7585 20.749 11.818C20.749 14.2002 19.8027 16.4848 18.1182 18.1692C16.4338 19.8537 14.1492 20.8 11.767 20.8H3.94702C3.79164 20.8001 3.64005 20.752 3.5132 20.6623C3.38636 20.5725 3.29051 20.4456 3.23891 20.2991C3.18731 20.1525 3.18251 19.9935 3.22516 19.8441C3.26781 19.6947 3.35582 19.5622 3.47702 19.465L5.44802 17.882C5.49016 17.8482 5.52024 17.8018 5.53376 17.7495C5.54728 17.6972 5.54351 17.642 5.52302 17.592L4.59202 15.304ZM12.36 5.25C7.46702 5.25 4.13402 10.207 5.98002 14.738L6.91202 17.027C7.05402 17.3759 7.07963 17.7614 6.98504 18.126C6.89045 18.4907 6.68072 18.8151 6.38702 19.051L6.07802 19.3H11.767C13.7514 19.3 15.6544 18.5117 17.0576 17.1086C18.4607 15.7054 19.249 13.8023 19.249 11.818C19.249 10.0761 18.557 8.40546 17.3253 7.17372C16.0936 5.94198 14.423 5.25 12.681 5.25H12.36Z" fill="black" stroke="black"/>
</svg>
