<svg width="28" height="28" viewBox="0 0 28 28" fill="none" xmlns="http://www.w3.org/2000/svg">
<path d="M12.1411 6.48668L4.66666 14L12.1411 21.5133C12.2086 21.602 12.2944 21.6751 12.3926 21.7277C12.4908 21.7803 12.5992 21.8112 12.7104 21.8183C12.8216 21.8254 12.933 21.8086 13.0371 21.7688C13.1412 21.7291 13.2356 21.6675 13.3138 21.5882C13.392 21.5088 13.4523 21.4136 13.4905 21.3089C13.5287 21.2043 13.544 21.0926 13.5353 20.9815C13.5266 20.8704 13.4942 20.7625 13.4402 20.6651C13.3861 20.5676 13.3118 20.4829 13.2222 20.4167L7.63 14.7778L22.5089 14.7778C22.7152 14.7778 22.913 14.6958 23.0589 14.55C23.2047 14.4041 23.2867 14.2063 23.2867 14C23.2867 13.7937 23.2047 13.5959 23.0589 13.45C22.913 13.3042 22.7152 13.2222 22.5089 13.2222L7.63 13.2222L13.2222 7.58335C13.3676 7.43689 13.4489 7.23866 13.4482 7.03226C13.4475 6.82587 13.3648 6.62822 13.2183 6.48279C13.0719 6.33736 12.8736 6.25607 12.6672 6.2568C12.4609 6.25753 12.2632 6.34022 12.1178 6.48668L12.1411 6.48668Z" fill="black"/>
</svg>
