<svg width="22" height="22" viewBox="0 0 22 22" fill="none" xmlns="http://www.w3.org/2000/svg">
<path d="M12.8333 2.75V6.41667C12.8333 6.65978 12.9299 6.89294 13.1018 7.06485C13.2737 7.23676 13.5069 7.33333 13.75 7.33333H17.4167" stroke="#F7FCFF" stroke-width="2" stroke-linecap="round" stroke-linejoin="round"/>
<path d="M17.4167 11V17.4167C17.46 17.7626 17.3914 18.1133 17.2209 18.4175C17.0504 18.7216 16.787 18.9631 16.4692 19.1066C16.1515 19.2501 15.7961 19.288 15.4552 19.2149C15.1144 19.1417 14.8059 18.9613 14.575 18.7C14.4335 18.519 14.2527 18.3726 14.0462 18.2719C13.8397 18.1713 13.613 18.1189 13.3833 18.1189C13.1536 18.1189 12.9269 18.1713 12.7204 18.2719C12.514 18.3726 12.3331 18.519 12.1917 18.7C12.0502 18.881 11.8694 19.0274 11.6629 19.1281C11.4564 19.2287 11.2297 19.2811 11 19.2811C10.7703 19.2811 10.5436 19.2287 10.3371 19.1281C10.1306 19.0274 9.9498 18.881 9.80833 18.7C9.66687 18.519 9.48603 18.3726 9.27956 18.2719C9.07308 18.1713 8.84638 18.1189 8.61666 18.1189C8.38695 18.1189 8.16025 18.1713 7.95377 18.2719C7.7473 18.3726 7.56646 18.519 7.425 18.7C7.19413 18.9613 6.88564 19.1417 6.54476 19.2149C6.20387 19.288 5.84851 19.2501 5.53077 19.1066C5.21302 18.9631 4.94959 18.7216 4.77909 18.4175C4.60859 18.1133 4.53999 17.7626 4.58333 17.4167V4.58333C4.58333 4.0971 4.77649 3.63079 5.1203 3.28697C5.46412 2.94315 5.93043 2.75 6.41666 2.75H12.8333L17.4167 7.33333V11.2292" stroke="#F7FCFF" stroke-width="2" stroke-linecap="round" stroke-linejoin="round"/>
</svg>
