<svg width="27" height="27" viewBox="0 0 27 27" fill="none" xmlns="http://www.w3.org/2000/svg">
<path d="M13.5 17.5241L9.51975 13.5428L10.3151 12.7339L12.9375 15.3562V5.625H14.0625V15.3562L16.6838 12.735L17.4803 13.5428L13.5 17.5241ZM7.44187 21.375C6.92437 21.375 6.49237 21.2017 6.14587 20.8553C5.79937 20.5087 5.62575 20.0764 5.625 19.5581V16.8322H6.75V19.5581C6.75 19.7306 6.822 19.8893 6.966 20.034C7.11 20.1788 7.26862 20.2507 7.44187 20.25H19.5581C19.7306 20.25 19.8893 20.178 20.034 20.034C20.1788 19.89 20.2507 19.7314 20.25 19.5581V16.8322H21.375V19.5581C21.375 20.0756 21.2017 20.5076 20.8553 20.8541C20.5087 21.2006 20.0764 21.3743 19.5581 21.375H7.44187Z" fill="black" stroke="black"/>
</svg>
