<svg width="18" height="18" viewBox="0 0 18 18" fill="none" xmlns="http://www.w3.org/2000/svg">
<path d="M8.19375 8.41875L7.125 7.35C7.05 7.275 6.96875 7.21875 6.88125 7.18125C6.79375 7.14375 6.703 7.125 6.609 7.125C6.515 7.125 6.4215 7.14375 6.3285 7.18125C6.2355 7.21875 6.151 7.275 6.075 7.35C5.9375 7.4875 5.86875 7.6625 5.86875 7.875C5.86875 8.0875 5.9375 8.2625 6.075 8.4L7.66875 10.0125C7.81875 10.1625 7.99375 10.2375 8.19375 10.2375C8.39375 10.2375 8.56875 10.1625 8.71875 10.0125L12.2063 6.825C12.2063 6.625 12.1938 6.43125 12.1688 6.24375C12.1438 6.05625 12.0625 5.89375 11.925 5.75625C11.775 5.60625 11.5968 5.53125 11.3903 5.53125C11.1838 5.53125 11.0058 5.60625 10.8563 5.75625L8.19375 8.41875ZM0.75 15.75V14.25H16.5C16.7125 14.25 16.8908 14.322 17.0347 14.466C17.1788 14.61 17.2505 14.788 17.25 15C17.2495 15.212 17.1775 15.3902 17.034 15.5347C16.8905 15.6792 16.7125 15.751 16.5 15.75H0.75ZM3 13.5C2.5875 13.5 2.2345 13.3533 1.941 13.0597C1.6475 12.7662 1.5005 12.413 1.5 12V3.75C1.5 3.3375 1.647 2.9845 1.941 2.691C2.235 2.3975 2.588 2.2505 3 2.25H15C15.4125 2.25 15.7658 2.397 16.0598 2.691C16.3538 2.985 16.5005 3.338 16.5 3.75V12C16.5 12.4125 16.3533 12.7657 16.0598 13.0597C15.7663 13.3538 15.413 13.5005 15 13.5H3ZM3 12H15V3.75H3V12Z" fill="#0A920A"/>
</svg>
