<svg width="25" height="25" viewBox="0 0 25 25" fill="none" xmlns="http://www.w3.org/2000/svg">
<g clip-path="url(#clip0_3_63)">
<path fill-rule="evenodd" clip-rule="evenodd" d="M5.20831 9.37501C5.20831 7.44114 5.97654 5.58648 7.34399 4.21902C8.71144 2.85157 10.5661 2.08334 12.5 2.08334C14.4338 2.08334 16.2885 2.85157 17.656 4.21902C19.0234 5.58648 19.7916 7.44114 19.7916 9.37501V13.2958L21.6896 17.0917C21.7769 17.2664 21.8182 17.4605 21.8094 17.6557C21.8006 17.8508 21.7421 18.0405 21.6394 18.2066C21.5367 18.3728 21.3932 18.5099 21.2226 18.605C21.052 18.7001 20.8599 18.75 20.6646 18.75H16.5354C16.3037 19.644 15.7817 20.4358 15.0513 21.001C14.3209 21.5662 13.4235 21.8729 12.5 21.8729C11.5764 21.8729 10.679 21.5662 9.94866 21.001C9.21828 20.4358 8.69627 19.644 8.46456 18.75H4.3354C4.14006 18.75 3.94796 18.7001 3.77734 18.605C3.60672 18.5099 3.46325 18.3728 3.36055 18.2066C3.25785 18.0405 3.19933 17.8508 3.19055 17.6557C3.18177 17.4605 3.22303 17.2664 3.3104 17.0917L5.20831 13.2958V9.37501ZM10.6958 18.75C10.8787 19.0667 11.1417 19.3297 11.4584 19.5125C11.7751 19.6953 12.1343 19.7916 12.5 19.7916C12.8657 19.7916 13.2249 19.6953 13.5416 19.5125C13.8583 19.3297 14.1213 19.0667 14.3041 18.75H10.6958ZM12.5 4.16668C11.1186 4.16668 9.79388 4.71541 8.81713 5.69216C7.84038 6.66891 7.29165 7.99367 7.29165 9.37501V13.2958C7.29162 13.6191 7.21637 13.9379 7.07185 14.2271L5.8531 16.6667H19.1479L17.9291 14.2271C17.7843 13.938 17.7087 13.6192 17.7083 13.2958V9.37501C17.7083 7.99367 17.1596 6.66891 16.1828 5.69216C15.2061 4.71541 13.8813 4.16668 12.5 4.16668Z" fill="black" fill-opacity="0.6"/>
<circle cx="18" cy="4" r="4" fill="#ED0505"/>
</g>
<defs>
<clipPath id="clip0_3_63">
<rect width="25" height="25" fill="white"/>
</clipPath>
</defs>
</svg>
