<svg width="22" height="18" viewBox="0 0 22 18" fill="none" xmlns="http://www.w3.org/2000/svg">
<path d="M12.1008 0C9.69383 0 7.38541 0.948211 5.6834 2.63604C3.98139 4.32386 3.02521 6.61305 3.02521 9H0L3.92269 12.89L3.99328 13.03L8.06723 9H5.04202C5.04202 5.13 8.19832 2 12.1008 2C16.0034 2 19.1597 5.13 19.1597 9C19.1597 12.87 16.0034 16 12.1008 16C10.1546 16 8.38992 15.21 7.11933 13.94L5.68739 15.36C6.52781 16.198 7.52721 16.8627 8.62796 17.3158C9.72871 17.7689 10.909 18.0015 12.1008 18C14.5078 18 16.8163 17.0518 18.5183 15.364C20.2203 13.6761 21.1765 11.3869 21.1765 9C21.1765 6.61305 20.2203 4.32386 18.5183 2.63604C16.8163 0.948211 14.5078 3.55683e-08 12.1008 0ZM11.0924 5V10L15.4084 12.54L16.1345 11.33L12.605 9.25V5H11.0924Z" fill="black"/>
</svg>
